<?xml version="1.0" standalone="no"?><!DOCTYPE svg PUBLIC "-//W3C//DTD SVG 1.1//EN" "http://www.w3.org/Graphics/SVG/1.1/DTD/svg11.dtd"><svg t="1558265168332" class="icon" style="" viewBox="0 0 1057 1024" version="1.1" xmlns="http://www.w3.org/2000/svg" p-id="1132" xmlns:xlink="http://www.w3.org/1999/xlink" width="24.7734375" height="24"><defs><style type="text/css"></style></defs><path d="M854.441558 1024h-651.636363C91.096104 1024 0 932.903896 0 821.194805v-618.38961C0 91.096104 91.096104 0 202.805195 0h651.636363C966.150649 0 1057.246753 91.096104 1057.246753 202.805195v618.38961c0 111.709091-91.096104 202.805195-202.805195 202.805195zM202.805195 19.948052C101.735065 19.948052 19.948052 101.735065 19.948052 202.805195v618.38961C19.948052 922.264935 101.735065 1004.051948 202.805195 1004.051948h651.636363c101.07013 0 182.857143-81.787013 182.857143-182.857143v-618.38961C1037.298701 101.735065 955.511688 19.948052 854.441558 19.948052h-651.636363z" p-id="1133" fill="#1296db"></path><path d="M582.483117 825.184416l22.607792-41.225974v-478.753247H418.909091V199.480519h498.036364v105.724676H731.428571V784.623377l22.607793 40.561039H635.012987zM184.851948 825.184416l27.927273-54.524676V256.664935L198.815584 199.480519h156.924676L339.116883 248.685714v519.314286l33.911688 57.184416h-119.688311z" p-id="1134" fill="#1296db"></path></svg>