<?xml version="1.0" standalone="no"?>
<!DOCTYPE svg PUBLIC "-//W3C//DTD SVG 20010904//EN"
 "http://www.w3.org/TR/2001/REC-SVG-20010904/DTD/svg10.dtd">
<svg version="1.0" xmlns="http://www.w3.org/2000/svg"
 width="310.000000pt" height="310.000000pt" viewBox="0 0 310.000000 310.000000"
 preserveAspectRatio="xMidYMid meet">
<metadata>
Created by potrace 1.11, written by Peter Selinger 2001-2013
</metadata>
<g transform="translate(0.000000,310.000000) scale(0.100000,-0.100000)"
fill="#000000" stroke="none">
<path d="M498 3044 c-3 -3 -17 -7 -32 -10 -91 -16 -222 -90 -293 -165 -60 -63
-77 -87 -110 -154 -63 -125 -62 -103 -61 -1165 0 -1074 -2 -1037 68 -1177 59
-117 154 -208 276 -265 125 -59 98 -57 1209 -57 974 0 1023 1 1094 20 204 53
367 214 426 419 17 61 18 122 18 1060 l0 995 -22 73 c-62 204 -224 360 -427
412 -76 20 -108 20 -1110 20 -567 0 -1034 -3 -1036 -6z m2117 -65 c77 -17 187
-74 243 -124 84 -76 150 -191 168 -296 5 -24 8 -485 9 -1024 0 -927 -1 -983
-18 -1035 -34 -101 -71 -162 -137 -229 -75 -75 -180 -132 -276 -150 -83 -16
-2041 -16 -2116 0 -198 42 -367 205 -413 400 -22 96 -22 1963 0 2058 41 170
162 309 330 377 62 24 85 28 205 31 74 2 141 5 149 6 8 1 418 1 910 0 631 -2
911 -6 946 -14z"/>
<path d="M595 2421 c3 -25 8 -48 10 -51 15 -25 18 -158 19 -825 l1 -750 -37
-73 c-21 -41 -38 -78 -38 -82 0 -5 122 -9 270 -9 149 0 270 2 270 4 0 2 -21
39 -47 82 l-48 78 0 770 1 770 22 58 c12 32 22 61 22 65 0 4 -101 7 -226 7
l-225 1 6 -45z"/>
<path d="M1229 2465 c-1 0 -1 -244 0 -280 l1 -31 270 1 270 1 0 -61 c1 -33 1
-350 0 -704 l0 -644 -30 -53 c-16 -30 -30 -56 -30 -59 0 -3 112 -5 249 -4
l249 1 -33 61 -33 62 2 700 1 700 265 1 c146 1 267 2 270 3 4 1 5 265 1 296
-1 8 -790 14 -1452 10z"/>
</g>
</svg>
